# xmcd CD database file
#
# Track frame offsets:
#	150
#	28557
#	56806
#	95155
#	131554
#	148397
#
# Disc length: 2403 seconds
#
# Revision: 0
# Processed by: cddbd v1.5.2PL0 Copyright (c) Steve Scherf et al.
# Submitted via: CDex 1.70beta2
#
DISCID=5b096106
DTITLE=Fumio Karashima - SHO
DYEAR=1980
DGENRE=Jazz
TTITLE0=Who are You
TTITLE1=Lament
TTITLE2=Little Island
TTITLE3=Brother "J"
TTITLE4=Mum
TTITLE5=Starting Off
EXTD=YEAR: 1980
EXTT0=
EXTT1=
EXTT2=
EXTT3=
EXTT4=
EXTT5=
PLAYORDER=
